HIERARCHY
ROOT Hips
{
	OFFSET 0.000000 103.266502 0.000000
	CHANNELS 6 Xposition Yposition Zposition Xrotation Yrotation Zrotation 
	JOINT Spine
	{
		OFFSET -0.002400 12.777504 0.315300
		CHANNELS 3 Xrotation Yrotation Zrotation
		JOINT Spine1
		{
			OFFSET -0.002067 5.816869 0.032633
			CHANNELS 3 Xrotation Yrotation Zrotation
			JOINT Spine1_split
			{
				OFFSET -0.002067 5.816869 0.032633
				CHANNELS 3 Xrotation Yrotation Zrotation
				JOINT Spine2
				{
					OFFSET -0.002067 5.816869 0.032633
					CHANNELS 3 Xrotation Yrotation Zrotation
					JOINT Neck
					{
						OFFSET -0.003700 21.199493 -0.826900
						CHANNELS 3 Xrotation Yrotation Zrotation
						JOINT Head
						{
							OFFSET 0.000000 20.442200 4.834800
							CHANNELS 3 Xrotation Yrotation Zrotation
							JOINT HeadTop_End
							{
								OFFSET 0.000000 34.668396 4.968400
								CHANNELS 3 Xrotation Yrotation Zrotation
								End Site
								{
									OFFSET 0.000000 0.000000 0.000000
								}
							}
						}
					}
					JOINT LeftShoulder
					{
						OFFSET 3.288150 8.794197 -1.372250
						CHANNELS 3 Xrotation Yrotation Zrotation
						JOINT LeftShoulder_split
						{
							OFFSET 3.288150 8.794197 -1.372250
							CHANNELS 3 Xrotation Yrotation Zrotation
							JOINT LeftArm
							{
								OFFSET 11.953299 -2.279007 -0.146200
								CHANNELS 3 Xrotation Yrotation Zrotation
								JOINT LeftForeArm
								{
									OFFSET 18.448900 0.000000 0.000000
									CHANNELS 3 Xrotation Yrotation Zrotation
									JOINT LeftHand
									{
										OFFSET 29.527798 0.000000 0.000000
										CHANNELS 3 Xrotation Yrotation Zrotation
										JOINT LeftHandThumb1
										{
											OFFSET 10.739754 -2.369614 9.225399
											CHANNELS 3 Xrotation Yrotation Zrotation
											JOINT LeftHandThumb2
											{
												OFFSET 4.926170 -2.844131 2.844125
												CHANNELS 3 Xrotation Yrotation Zrotation
												JOINT LeftHandThumb3
												{
													OFFSET 4.614891 -2.664413 2.664409
													CHANNELS 3 Xrotation Yrotation Zrotation
													JOINT LeftHandThumb4
													{
														OFFSET 4.432465 -2.559082 2.559083
														CHANNELS 3 Xrotation Yrotation Zrotation
														End Site
														{
															OFFSET 0.000000 0.000000 0.000000
														}
													}
												}
											}
										}
										JOINT LeftHandIndex1
										{
											OFFSET 26.467674 0.187653 6.405298
											CHANNELS 3 Xrotation Yrotation Zrotation
											JOINT LeftHandIndex2
											{
												OFFSET 8.792900 0.000000 0.000000
												CHANNELS 3 Xrotation Yrotation Zrotation
												JOINT LeftHandIndex3
												{
													OFFSET 10.075203 0.000000 0.000000
													CHANNELS 3 Xrotation Yrotation Zrotation
													End Site
													{
														OFFSET 0.000000 0.000000 0.000000
													}
												}
											}
										}
										JOINT LeftHandMiddle1
										{
											OFFSET 25.764404 0.000000 0.000000
											CHANNELS 3 Xrotation Yrotation Zrotation
											JOINT LeftHandMiddle2
											{
												OFFSET 9.393974 0.000000 0.000000
												CHANNELS 3 Xrotation Yrotation Zrotation
												JOINT LeftHandMiddle3
												{
													OFFSET 10.771950 0.000000 0.000000
													CHANNELS 3 Xrotation Yrotation Zrotation
													End Site
													{
														OFFSET 0.000000 0.000000 0.000000
													}
												}
											}
										}
										JOINT LeftHandRing1
										{
											OFFSET 24.660927 0.144547 -6.225808
											CHANNELS 3 Xrotation Yrotation Zrotation
											JOINT LeftHandRing2
											{
												OFFSET 9.393799 0.000000 0.000000
												CHANNELS 3 Xrotation Yrotation Zrotation
												JOINT LeftHandRing3
												{
													OFFSET 9.928497 0.000000 0.000000
													CHANNELS 3 Xrotation Yrotation Zrotation
													End Site
													{
														OFFSET 0.000000 0.000000 0.000000
													}
												}
											}
										}
										JOINT LeftHandPinky1
										{
											OFFSET 23.655350 0.125290 -12.815412
											CHANNELS 3 Xrotation Yrotation Zrotation
											JOINT LeftHandPinky2
											{
												OFFSET 8.425102 0.000000 0.000000
												CHANNELS 3 Xrotation Yrotation Zrotation
												JOINT LeftHandPinky3
												{
													OFFSET 8.147003 0.000000 0.000000
													CHANNELS 3 Xrotation Yrotation Zrotation
													End Site
													{
														OFFSET 0.000000 0.000000 0.000000
													}
												}
											}
										}
									}
								}
							}
						}
					}
					JOINT RightShoulder
					{
						OFFSET -3.249400 8.794197 -1.372250
						CHANNELS 3 Xrotation Yrotation Zrotation
						JOINT RightShoulder_split
						{
							OFFSET -3.249400 8.794197 -1.372250
							CHANNELS 3 Xrotation Yrotation Zrotation
							JOINT RightArm
							{
								OFFSET -11.953299 -2.279007 -0.146200
								CHANNELS 3 Xrotation Yrotation Zrotation
								JOINT RightForeArm
								{
									OFFSET -18.448900 0.000000 0.000000
									CHANNELS 3 Xrotation Yrotation Zrotation
									JOINT RightHand
									{
										OFFSET -29.527802 0.000000 0.000000
										CHANNELS 3 Xrotation Yrotation Zrotation
										JOINT RightHandThumb1
										{
											OFFSET -10.739754 -2.369614 9.225399
											CHANNELS 3 Xrotation Yrotation Zrotation
											JOINT RightHandThumb2
											{
												OFFSET -4.926170 -2.844131 2.844125
												CHANNELS 3 Xrotation Yrotation Zrotation
												JOINT RightHandThumb3
												{
													OFFSET -4.614891 -2.664413 2.664409
													CHANNELS 3 Xrotation Yrotation Zrotation
													JOINT RightHandThumb4
													{
														OFFSET -4.432465 -2.559082 2.559083
														CHANNELS 3 Xrotation Yrotation Zrotation
														End Site
														{
															OFFSET 0.000000 0.000000 0.000000
														}
													}
												}
											}
										}
										JOINT RightHandIndex1
										{
											OFFSET -26.467674 0.187653 6.405298
											CHANNELS 3 Xrotation Yrotation Zrotation
											JOINT RightHandIndex2
											{
												OFFSET -8.792900 0.000000 0.000000
												CHANNELS 3 Xrotation Yrotation Zrotation
												JOINT RightHandIndex3
												{
													OFFSET -10.075203 0.000000 0.000000
													CHANNELS 3 Xrotation Yrotation Zrotation
													End Site
													{
														OFFSET 0.000000 0.000000 0.000000
													}
												}
											}
										}
										JOINT RightHandMiddle1
										{
											OFFSET -25.764404 0.000000 0.000000
											CHANNELS 3 Xrotation Yrotation Zrotation
											JOINT RightHandMiddle2
											{
												OFFSET -9.393974 0.000000 0.000000
												CHANNELS 3 Xrotation Yrotation Zrotation
												JOINT RightHandMiddle3
												{
													OFFSET -10.771950 0.000000 0.000000
													CHANNELS 3 Xrotation Yrotation Zrotation
													End Site
													{
														OFFSET 0.000000 0.000000 0.000000
													}
												}
											}
										}
										JOINT RightHandRing1
										{
											OFFSET -24.660927 0.144547 -6.225808
											CHANNELS 3 Xrotation Yrotation Zrotation
											JOINT RightHandRing2
											{
												OFFSET -9.393799 0.000000 0.000000
												CHANNELS 3 Xrotation Yrotation Zrotation
												JOINT RightHandRing3
												{
													OFFSET -9.928497 0.000000 0.000000
													CHANNELS 3 Xrotation Yrotation Zrotation
													End Site
													{
														OFFSET 0.000000 0.000000 0.000000
													}
												}
											}
										}
										JOINT RightHandPinky1
										{
											OFFSET -23.655350 0.125290 -12.815412
											CHANNELS 3 Xrotation Yrotation Zrotation
											JOINT RightHandPinky2
											{
												OFFSET -8.425102 0.000000 0.000000
												CHANNELS 3 Xrotation Yrotation Zrotation
												JOINT RightHandPinky3
												{
													OFFSET -8.147003 0.000000 0.000000
													CHANNELS 3 Xrotation Yrotation Zrotation
													End Site
													{
														OFFSET 0.000000 0.000000 0.000000
													}
												}
											}
										}
									}
								}
							}
						}
					}
				}
			}
		}
	}
	JOINT LeftUpLeg
	{
		OFFSET 11.394100 -6.187798 -0.413800
		CHANNELS 3 Xrotation Yrotation Zrotation
		JOINT LeftLeg
		{
			OFFSET 0.430247 -32.302673 3.732800
			CHANNELS 3 Xrotation Yrotation Zrotation
			JOINT LeftFoot
			{
				OFFSET -0.430247 -48.264931 -6.423300
				CHANNELS 3 Xrotation Yrotation Zrotation
				JOINT LeftToeBase
				{
					OFFSET 4.230900 -16.068199 23.438400
					CHANNELS 3 Xrotation Yrotation Zrotation
					JOINT LeftToe_End
					{
						OFFSET 4.510700 0.695400 19.974600
						CHANNELS 3 Xrotation Yrotation Zrotation
						End Site
						{
							OFFSET 0.000000 0.000000 0.000000
						}
					}
				}
			}
		}
	}
	JOINT RightUpLeg
	{
		OFFSET -11.333700 -6.187798 -0.413800
		CHANNELS 3 Xrotation Yrotation Zrotation
		JOINT RightLeg
		{
			OFFSET -0.430392 -32.302628 3.733000
			CHANNELS 3 Xrotation Yrotation Zrotation
			JOINT RightFoot
			{
				OFFSET 0.430392 -48.264973 -6.423500
				CHANNELS 3 Xrotation Yrotation Zrotation
				JOINT RightToeBase
				{
					OFFSET -4.230900 -16.068199 23.438400
					CHANNELS 3 Xrotation Yrotation Zrotation
					JOINT RightToe_End
					{
						OFFSET -4.510700 0.695400 19.974600
						CHANNELS 3 Xrotation Yrotation Zrotation
						End Site
						{
							OFFSET 0.000000 0.000000 0.000000
						}
					}
				}
			}
		}
	}
}
MOTION
Frames: 5
Frame Time: 0.016667
-0.041600 101.216164 0.400288 -0.316943 -0.856366 0.749002 0.601516 0.536690 0.252222 0.948881 0.543752 -0.036077 0.000000 0.000000 0.000000 0.949056 0.535715 -0.036774 1.759489 -1.272665 -0.666066 -4.887638 -8.012349 2.592187 0.000000 -0.000001 0.000000 0.691656 -2.499305 -11.191562 0.000000 0.000000 0.000000 5.273944 -17.247119 -62.895285 0.000001 -21.850199 -0.000004 -1.967785 -14.998016 7.080649 -0.666104 2.158566 4.837362 11.853345 25.414295 17.057503 -13.811974 3.541894 9.030640 0.000002 -0.000001 0.000002 0.021811 -0.966722 -7.590987 0.267894 1.752957 -17.376548 -0.000001 -0.000002 0.000002 -0.077462 2.661814 -15.698700 0.268784 1.755764 -17.405241 0.000001 0.000000 -0.000001 0.137971 3.644573 -21.134837 0.386568 2.094645 -20.910464 -0.000002 -0.000002 0.000001 0.949909 5.544495 -27.129291 0.268792 1.755835 -17.405894 0.000001 -0.000001 -0.000000 0.450398 7.851258 13.847201 0.000000 0.000000 0.000000 5.786521 9.805976 61.054938 -0.000000 23.253213 0.000013 -0.662978 7.830452 -2.975873 -1.664519 -0.169094 -4.216935 12.708024 -29.838190 -16.127711 -15.551980 -3.555852 -12.703325 0.000001 -0.000001 0.000002 0.037643 1.264474 6.828355 0.213850 -1.396484 17.412953 -0.000002 -0.000000 -0.000001 -0.135867 -2.206373 14.998768 0.214463 -1.398408 17.437714 0.000001 0.000002 0.000003 0.031312 -3.078191 20.463780 0.308448 -1.668282 20.948520 -0.000000 -0.000001 -0.000002 0.775426 -4.872493 26.474281 0.214427 -1.398283 17.436033 -0.000002 0.000000 0.000000 -7.961550 13.492386 8.004269 11.045580 -9.846635 0.322198 -3.857416 0.182480 -6.679550 -0.641578 0.000001 0.000002 -0.000000 0.000000 -0.000000 -6.599983 -9.917443 -12.760276 9.270549 6.290311 2.495744 -3.548865 -0.492412 7.915474 -0.000002 0.000000 0.000001 0.000000 -0.000000 0.000000 
-0.042395 101.217422 0.433820 -0.316946 -0.875848 0.748578 0.601513 0.536634 0.241731 0.948880 0.543752 -0.041389 0.000000 0.000000 0.000000 0.949055 0.535716 -0.036774 1.770464 -1.244366 -0.642450 -4.885035 -7.837789 2.577701 0.000000 -0.000000 0.000000 0.691600 -2.499366 -11.192655 0.000000 0.000000 0.000000 5.373534 -17.224135 -62.870170 0.000020 -21.977804 0.000009 -2.049703 -15.016719 7.242966 -0.708388 2.148815 4.824276 11.885537 25.397640 16.959764 -13.809143 3.410572 9.038914 0.000001 -0.000001 0.000001 0.004552 -0.960453 -7.844307 0.274101 1.772700 -17.578467 0.000000 0.000001 0.000001 -0.083339 2.660494 -15.925206 0.276572 1.780495 -17.658342 -0.000001 -0.000000 0.000001 0.130347 3.636592 -21.401535 0.396281 2.119868 -21.174529 0.000001 -0.000001 -0.000001 0.949951 5.539167 -27.389806 0.277957 1.784789 -17.702484 -0.000003 -0.000001 0.000001 0.452105 7.851159 13.834702 0.000000 0.000000 0.000000 5.909146 9.840616 61.120201 0.000000 23.315455 0.000012 -0.695395 7.878868 -3.018682 -1.689572 -0.129789 -4.285258 12.722654 -29.827327 -15.983437 -15.499917 -3.442696 -12.729430 -0.000000 0.000001 -0.000000 0.037491 1.312011 6.928881 0.220913 -1.418769 17.699891 -0.000003 0.000001 -0.000000 -0.145121 -2.185769 15.152141 0.220047 -1.416041 17.664783 0.000000 -0.000001 0.000001 0.022664 -3.061571 20.607550 0.316096 -1.688114 21.209602 0.000000 -0.000000 -0.000002 0.769645 -4.857934 26.616697 0.219006 -1.412803 17.623140 -0.000002 -0.000000 -0.000000 -7.924905 13.502016 8.003965 11.025048 -9.847343 0.322071 -3.871928 0.200647 -6.682009 -0.645830 0.000001 -0.000001 0.000000 -0.000000 -0.000000 -6.568116 -9.911366 -12.758513 9.244124 6.290454 2.489172 -3.554475 -0.492665 7.926972 0.000001 -0.000001 0.000001 -0.000000 0.000000 -0.000000 
-0.044398 101.216728 0.469820 -0.316947 -0.893108 0.748925 0.601510 0.540341 0.230796 0.948881 0.543752 -0.047614 0.000000 0.000000 0.000000 0.949056 0.535716 -0.042374 1.780577 -1.212659 -0.622516 -4.885159 -7.647348 2.553905 0.000000 0.000000 0.000000 0.692010 -2.516156 -11.214498 0.000000 0.000000 0.000000 5.525727 -17.246013 -62.798863 -0.000001 -22.198152 -0.000005 -2.131745 -14.873360 7.452623 -0.830603 2.120668 4.786322 11.978258 25.349216 16.677309 -13.801779 3.030283 9.060989 -0.000000 -0.000001 0.000000 -0.041669 -0.942365 -8.576637 0.292448 1.829551 -18.162153 -0.000002 0.000000 0.000001 -0.100885 2.656966 -16.579876 0.299771 1.851697 -18.389871 -0.000003 0.000002 0.000002 0.107216 3.614053 -22.172271 0.424998 2.192519 -21.937828 -0.000000 0.000002 -0.000001 0.949225 5.524164 -28.142789 0.305287 1.868200 -18.559781 -0.000002 0.000001 0.000000 0.449468 7.849635 13.857038 0.000000 0.000000 0.000000 6.043052 9.889813 61.153771 0.000005 23.361523 -0.000023 -0.730125 7.851453 -3.040926 -1.761846 -0.016395 -4.482730 12.765000 -29.795922 -15.566346 -15.349720 -3.115527 -12.805216 0.000000 -0.000002 -0.000000 0.036044 1.449437 7.219403 0.241926 -1.482939 18.529402 -0.000001 0.000000 0.000002 -0.172605 -2.126487 15.595327 0.236555 -1.466865 18.321217 0.000002 -0.000002 0.000001 -0.002938 -3.013793 21.023056 0.338699 -1.745220 21.964232 0.000000 0.000003 0.000002 0.752413 -4.816134 27.028264 0.232544 -1.454706 18.163918 -0.000001 0.000000 0.000001 -7.890312 13.510889 8.003629 11.015533 -9.847760 0.322040 -3.895800 0.214388 -6.682792 -0.655509 -0.000004 -0.000002 0.000000 0.000000 0.000000 -6.545009 -9.905369 -12.754110 9.241401 6.286016 2.483032 -3.573752 -0.492607 7.931634 -0.000001 -0.000000 0.000002 -0.000000 -0.000000 -0.000000 
-0.046645 101.211029 0.506447 -0.316948 -0.904542 0.745644 0.602726 0.545616 0.222692 0.952789 0.543752 -0.056660 0.000000 0.000000 0.000000 0.952979 0.540084 -0.051263 1.792710 -1.175588 -0.617547 -4.910367 -7.452488 2.543739 -0.000000 0.000000 0.000000 0.691128 -2.553943 -11.273605 0.000000 0.000000 0.000000 5.631552 -17.345952 -62.656911 0.000000 -22.462020 -0.000004 -2.273022 -14.267529 7.402781 -1.025762 2.075838 4.725323 12.125235 25.271058 16.226638 -13.792508 2.420709 9.090434 0.000001 -0.000000 -0.000001 -0.116549 -0.912146 -9.746209 0.322957 1.919992 -19.094420 -0.000004 -0.000003 0.000000 -0.130693 2.652281 -17.625336 0.338675 1.964815 -19.558431 -0.000001 0.000003 -0.000001 0.066865 3.579865 -23.403090 0.472877 2.307740 -23.157094 0.000002 0.000000 0.000001 0.945487 5.501404 -29.345153 0.351511 2.000536 -19.929198 -0.000002 0.000000 0.000000 0.446511 7.844590 13.940671 0.000000 0.000000 0.000000 6.222921 9.968890 61.098836 -0.000005 23.471774 0.000035 -0.775157 7.617301 -2.904976 -1.876955 0.163953 -4.797914 12.832633 -29.745785 -14.900278 -15.110598 -2.592530 -12.927054 -0.000000 0.000001 0.000002 0.030676 1.669079 7.683173 0.277391 -1.584802 19.854351 -0.000001 -0.000002 0.000001 -0.218983 -2.032689 16.303144 0.264135 -1.547639 19.369689 0.000001 -0.000001 -0.000000 -0.045746 -2.938348 21.686633 0.376365 -1.835802 23.169597 0.000000 0.000001 -0.000001 0.723240 -4.750163 27.685458 0.254970 -1.521344 19.027715 -0.000002 -0.000000 -0.000002 -7.875190 13.514659 8.011288 11.037423 -9.848228 0.321926 -3.933140 0.220470 -6.676916 -0.662181 -0.000001 0.000001 -0.000000 0.000000 -0.000000 -6.535367 -9.886725 -12.742775 9.272649 6.266931 2.468595 -3.608286 -0.498719 7.938980 -0.000060 -0.000003 0.000004 0.000000 -0.000000 0.000000 
-0.047476 101.193550 0.537969 -0.311823 -0.907441 0.732846 0.610659 0.554159 0.222363 0.963187 0.543752 -0.069053 0.000000 0.000000 0.000000 0.963427 0.544779 -0.063332 1.815913 -1.132039 -0.633814 -5.016606 -7.264909 2.573067 -0.000000 0.000001 0.000000 0.687646 -2.578771 -11.358225 0.000000 0.000000 0.000000 5.493325 -17.548539 -62.451179 0.000000 -22.647003 -0.000005 -2.648929 -12.978155 6.643918 -1.286871 2.016090 4.643072 12.319815 25.164961 15.624210 -13.785065 1.600827 9.118518 0.000002 -0.000001 -0.000001 -0.218672 -0.869011 -11.311116 0.366065 2.040225 -20.342233 -0.000000 -0.000001 -0.000001 -0.173943 2.647923 -19.024208 0.394354 2.114898 -21.122532 0.000002 -0.000001 -0.000000 0.006497 3.537853 -25.049709 0.540766 2.460280 -24.789123 -0.000000 -0.000003 -0.000003 0.935654 5.473441 -30.953799 0.418301 2.175841 -21.762226 0.000001 -0.000001 -0.000003 0.440788 7.832455 14.103891 0.000000 0.000000 0.000000 6.457135 10.074934 60.890453 0.000008 23.759037 -0.000013 -0.923759 7.125578 -2.462963 -2.030399 0.403893 -5.219326 12.923269 -29.678763 -14.008976 -14.792088 -1.891829 -13.091748 -0.000000 -0.000000 -0.000003 0.017576 1.963274 8.303453 0.328523 -1.719798 21.627697 -0.000004 -0.000000 -0.000001 -0.285769 -1.908964 17.250211 0.303347 -1.654919 20.772945 -0.000002 -0.000001 -0.000001 -0.106704 -2.839097 22.574467 0.429731 -1.955749 24.782909 -0.000000 0.000002 0.000001 0.681037 -4.663454 28.564773 0.286567 -1.610001 20.183754 0.000000 0.000001 0.000002 -7.926747 13.500389 8.036001 11.148549 -9.848112 0.328916 -4.000111 0.227521 -6.662612 -0.659550 -0.000001 0.000001 -0.000000 0.000000 -0.000000 -6.570225 -9.837107 -12.718564 9.378704 6.226154 2.437894 -3.670040 -0.507736 7.953102 -0.000017 -0.000001 0.000003 -0.000000 -0.000000 -0.000000 
